<svg width="23" height="22" viewBox="0 0 23 22" fill="none" xmlns="http://www.w3.org/2000/svg">
<path d="M8.14581 13.0625C8.14581 14.8225 9.65998 16.2708 11.5 16.2708C13.34 16.2708 14.8541 14.8225 14.8541 13.0625" stroke="white" stroke-width="1.41354" stroke-miterlimit="10" stroke-linecap="round" stroke-linejoin="round"/>
<path d="M8.44292 1.83325L4.97375 5.16075" stroke="white" stroke-width="1.41354" stroke-miterlimit="10" stroke-linecap="round" stroke-linejoin="round"/>
<path d="M14.5571 1.83325L18.0262 5.16075" stroke="white" stroke-width="1.41354" stroke-miterlimit="10" stroke-linecap="round" stroke-linejoin="round"/>
<path d="M1.91663 7.19588C1.91663 5.50005 2.86538 5.36255 4.04413 5.36255H18.9558C20.1345 5.36255 21.0833 5.50005 21.0833 7.19588C21.0833 9.16672 20.1345 9.02922 18.9558 9.02922H4.04413C2.86538 9.02922 1.91663 9.16672 1.91663 7.19588Z" stroke="white" stroke-width="1.41354"/>
<path d="M3.35419 9.16663L4.70544 17.0866C5.0121 18.865 5.75002 20.1666 8.49085 20.1666H14.2696C17.25 20.1666 17.6909 18.92 18.0359 17.1966L19.6459 9.16663" stroke="white" stroke-width="1.41354" stroke-linecap="round"/>
</svg>
