<svg width="26" height="26" viewBox="0 0 26 26" fill="none" xmlns="http://www.w3.org/2000/svg">
<path d="M7.16735 22.75C6.68202 22.75 6.26891 22.5796 5.92802 22.2387C5.58713 21.8978 5.41669 21.485 5.41669 21.0004V11.4996C5.41669 11.0157 5.58713 10.6029 5.92802 10.2613C6.26891 9.92044 6.68202 9.75 7.16735 9.75H8.66669V7.58333C8.66669 6.3765 9.08738 5.35275 9.92877 4.51208C10.7694 3.67069 11.7932 3.25 13 3.25C14.2069 3.25 15.231 3.67069 16.0724 4.51208C16.9137 5.35347 17.3341 6.37722 17.3334 7.58333V9.75H18.8338C19.3177 9.75 19.7304 9.92044 20.072 10.2613C20.4129 10.6022 20.5834 11.0153 20.5834 11.5007V21.0004C20.5834 21.4843 20.4129 21.8971 20.072 22.2387C19.7311 22.5796 19.3184 22.75 18.8338 22.75H7.16735ZM7.16735 21.6667H18.8338C19.028 21.6667 19.1877 21.6042 19.3126 21.4792C19.4375 21.3543 19.5 21.1947 19.5 21.0004V11.4996C19.5 11.3053 19.4375 11.1457 19.3126 11.0208C19.1877 10.8958 19.028 10.8333 18.8338 10.8333H7.16627C6.97199 10.8333 6.81238 10.8958 6.68744 11.0208C6.56249 11.1457 6.50002 11.3057 6.50002 11.5007V21.0004C6.50002 21.1947 6.56249 21.3543 6.68744 21.4792C6.81238 21.6042 6.97235 21.6667 7.16735 21.6667ZM13 17.875C13.4572 17.875 13.8421 17.7183 14.1549 17.4048C14.4683 17.0921 14.625 16.7072 14.625 16.25C14.625 15.7928 14.4683 15.4079 14.1549 15.0952C13.8414 14.7824 13.4565 14.6257 13 14.625C12.5436 14.6243 12.1586 14.781 11.8452 15.0952C11.5317 15.4079 11.375 15.7928 11.375 16.25C11.375 16.7072 11.5317 17.0921 11.8452 17.4048C12.1579 17.7183 12.5429 17.875 13 17.875ZM9.75002 9.75H16.25V7.58333C16.25 6.68056 15.934 5.91319 15.3021 5.28125C14.6702 4.64931 13.9028 4.33333 13 4.33333C12.0972 4.33333 11.3299 4.64931 10.6979 5.28125C10.066 5.91319 9.75002 6.68056 9.75002 7.58333V9.75Z" fill="white"/>
</svg>
