<svg width="150" height="34" viewBox="0 0 150 34" fill="none" xmlns="http://www.w3.org/2000/svg">
<path fill-rule="evenodd" clip-rule="evenodd" d="M12.5725 0.234223C8.8191 0.996649 5.44154 3.07825 3.04662 6.10528C1.71321 7.7906 0.507716 10.6781 0.188754 12.951C0.104954 13.549 0.0280424 18.5296 0.018203 24.0192L0 34L0.700405 33.9998L1.40081 33.9997L1.40966 23.786V17.7947L1.43907 16.177L1.52901 14.6728L1.64894 13.2821L1.84342 12.0866C4.82182 1.67488 18.1444 -1.75728 26.1488 5.82504C27.8251 7.41296 29.0226 9.34947 29.8063 11.7397L30.2543 13.1063L30.3083 23.5531L30.3622 34H31.0011H31.6401L31.6956 23.6308C31.7503 13.465 31.7585 13.2373 32.1168 12.0189C33.5532 7.13443 37.4507 3.44579 42.5625 2.1333C44.4628 1.64536 47.7603 1.64257 49.6694 2.12724C52.3544 2.80904 54.7834 4.16224 56.5706 5.97184C57.8189 7.23602 58.4147 8.06587 59.2102 9.64851C60.6021 12.418 60.7063 13.526 60.6479 24.9512L60.6015 34H61.3007H62L61.9843 24.0192C61.9756 18.5298 61.8991 13.549 61.8147 12.951C61.3389 9.58575 59.6328 6.41161 57.0549 4.09575C55.0484 2.29315 52.9306 1.14671 50.2528 0.413334C48.4898 -0.0694736 44.0174 -0.105669 42.2483 0.348711C37.1378 1.66121 33.002 5.1945 31.3157 9.68874C31.0774 10.3241 31.0031 10.4089 30.9082 10.1548C30.589 9.30162 29.4964 7.21847 29.02 6.555C26.629 3.22428 23.0012 0.94756 18.8924 0.19896C17.3563 -0.0808139 14.0322 -0.0623278 12.5725 0.234223ZM14.5835 5.12086C10.5039 5.4474 6.88975 7.89421 5.08306 11.5529C3.94775 13.8515 3.94267 13.9099 3.94267 24.5158V34H4.59863H5.25459L5.25738 24.9512C5.26066 14.7554 5.27214 14.6322 6.42467 12.4073C7.78284 9.78505 10.6886 7.64473 13.7001 7.04775C18.5057 6.09533 23.3595 8.40809 25.4368 12.6403C25.7723 13.3238 26.1285 14.2535 26.2282 14.7062C26.3487 15.2538 26.4094 18.6211 26.4094 24.7647V34H27.1564H27.9034L27.8455 24.2522C27.7884 14.6453 27.7822 14.4876 27.4158 13.3435C26.4132 10.2133 24.2182 7.65731 21.3769 6.31142C19.1966 5.27854 17.1326 4.91674 14.5835 5.12086ZM44.8426 5.12397C40.0028 5.54635 35.9286 8.8547 34.564 13.4707C34.225 14.6173 34.2104 15.0049 34.1557 24.3299L34.0988 34H34.8459H35.5929V24.712C35.5929 14.3318 35.5703 14.5745 36.7531 12.2856C37.525 10.7918 39.1936 9.08523 40.7078 8.24078C42.9316 7.00068 45.7862 6.54133 48.2202 7.03206C51.3739 7.66788 54.2544 9.77278 55.5952 12.4214C56.7303 14.6639 56.7416 14.7871 56.7449 24.9512L56.7477 34H57.4037H58.0596L58.0585 24.4852C58.0572 13.7041 58.0401 13.5309 56.7456 11.1838C54.3923 6.9171 49.988 4.67487 44.8426 5.12397ZM14.0606 9.15995C11.8672 9.64882 9.61855 11.4904 8.54802 13.6749C8.19872 14.3874 7.83138 15.3409 7.73167 15.7936C7.61196 16.3379 7.55046 19.5618 7.55046 25.3084V34H15.914H24.2775L24.2718 25.6503C24.2652 16.1259 24.2167 15.6067 23.1422 13.5725C22.3339 12.0422 21.461 11.0688 20.1586 10.245C18.4086 9.13805 16.0452 8.71753 14.0606 9.15995ZM43.755 9.35398C41.5733 10.0583 40.0005 11.4137 38.8601 13.5725C37.7856 15.6067 37.7371 16.1259 37.7305 25.6503L37.7248 34H46.0883H54.4518L54.4494 25.2619C54.4467 15.4503 54.4453 15.4357 53.285 13.323C51.3814 9.85713 47.3705 8.18672 43.755 9.35398Z" fill="black"/>
<path d="M86.1094 26.4492C86.0781 26.4648 85.9258 26.5234 85.6523 26.625C85.3789 26.7188 85.0234 26.8242 84.5859 26.9414C84.1484 27.0508 83.6445 27.1523 83.0742 27.2461C82.5117 27.3398 81.9258 27.3867 81.3164 27.3867C80.418 27.3867 79.5859 27.2773 78.8203 27.0586C78.0625 26.8477 77.3711 26.5508 76.7461 26.168C76.1289 25.7852 75.582 25.3281 75.1055 24.7969C74.6367 24.2656 74.2383 23.6875 73.9102 23.0625C73.5898 22.4375 73.3477 21.7734 73.1836 21.0703C73.0195 20.3672 72.9375 19.6484 72.9375 18.9141C72.9375 17.6719 73.1406 16.5352 73.5469 15.5039C73.9531 14.4727 74.5234 13.5898 75.2578 12.8555C75.9922 12.1133 76.875 11.5391 77.9062 11.1328C78.9375 10.7188 80.082 10.5117 81.3398 10.5117C81.7305 10.5117 82.1055 10.5352 82.4648 10.582C82.832 10.6211 83.2031 10.6797 83.5781 10.7578C83.9531 10.8359 84.3477 10.9336 84.7617 11.0508C85.1758 11.168 85.625 11.3008 86.1094 11.4492V15.2109H84.668L84.3164 13.0312C84.3008 12.9219 84.2461 12.8125 84.1523 12.7031C84.0586 12.5938 83.9766 12.5195 83.9062 12.4805C83.8125 12.4414 83.6875 12.3867 83.5312 12.3164C83.3828 12.2461 83.2031 12.1797 82.9922 12.1172C82.7812 12.0469 82.5469 11.9883 82.2891 11.9414C82.0312 11.8867 81.7539 11.8594 81.457 11.8594C80.6367 11.8594 79.875 12.0117 79.1719 12.3164C78.4688 12.6211 77.8594 13.0703 77.3438 13.6641C76.8281 14.2578 76.4219 14.9961 76.125 15.8789C75.8359 16.7539 75.6914 17.7656 75.6914 18.9141C75.6914 20.0312 75.8281 21.0312 76.1016 21.9141C76.3828 22.7969 76.7852 23.5469 77.3086 24.1641C77.832 24.7812 78.4688 25.2539 79.2188 25.582C79.9688 25.9023 80.8203 26.0625 81.7734 26.0625C82.0547 26.0625 82.3086 26.043 82.5352 26.0039C82.7695 25.9648 82.9727 25.9219 83.1445 25.875C83.3164 25.8203 83.4492 25.7734 83.543 25.7344C83.6367 25.6875 83.6914 25.6602 83.707 25.6523C83.832 25.6055 83.9336 25.5391 84.0117 25.4531C84.0898 25.3672 84.1406 25.2734 84.1641 25.1719L84.7148 22.5586H86.1094V26.4492ZM99.6211 14.7305L99.2812 12.4805C99.2578 12.3555 99.2109 12.2578 99.1406 12.1875C99.0781 12.1094 98.9922 12.0703 98.8828 12.0703H95.4492V25.3477C95.4492 25.4648 95.4883 25.5781 95.5664 25.6875C95.6523 25.7969 95.7812 25.8594 95.9531 25.875L97.4883 25.9688V27H90.9844V25.9688L92.5195 25.875C92.6914 25.8594 92.8164 25.7969 92.8945 25.6875C92.9805 25.5781 93.0234 25.4648 93.0234 25.3477V12.0703H89.5664C89.457 12.0703 89.3633 12.1094 89.2852 12.1875C89.2148 12.2578 89.1719 12.3555 89.1562 12.4805L88.8281 14.7305H87.4336V10.8984H101.039V14.7305H99.6211ZM102.211 27V25.9688L103.453 25.875C103.625 25.8594 103.754 25.7969 103.84 25.6875C103.934 25.5781 103.98 25.4648 103.98 25.3477V12.5508C103.98 12.4336 103.934 12.3203 103.84 12.2109C103.754 12.1016 103.625 12.0391 103.453 12.0234L102.211 11.9297V10.8984H113.871V14.4727H112.43L112.066 12.5039C112.051 12.3867 112 12.2812 111.914 12.1875C111.836 12.0938 111.742 12.0469 111.633 12.0469H106.406V18.0234H110.027C110.137 18.0234 110.234 17.9766 110.32 17.8828C110.414 17.7891 110.461 17.6992 110.461 17.6133L110.707 15.9609H111.926V21.3164H110.707L110.461 19.6523C110.461 19.5664 110.414 19.4727 110.32 19.3711C110.227 19.2695 110.129 19.2188 110.027 19.2188H106.406V25.8281H112.5C112.602 25.8281 112.695 25.7734 112.781 25.6641C112.867 25.5547 112.918 25.457 112.934 25.3711L113.367 22.9922H114.656V27H102.211ZM125.672 27V25.9688L127.113 25.875C127.285 25.8594 127.41 25.7969 127.488 25.6875C127.574 25.5703 127.617 25.4648 127.617 25.3711V12.1172H122.848C122.848 13.7109 122.816 15.1719 122.754 16.5C122.691 17.8281 122.605 19.0117 122.496 20.0508C122.387 21.0898 122.254 21.9766 122.098 22.7109C121.941 23.4453 121.766 24.0117 121.57 24.4102C121.305 24.9805 121.012 25.457 120.691 25.8398C120.379 26.2148 120.035 26.5195 119.66 26.7539C119.293 26.9805 118.898 27.1406 118.477 27.2344C118.062 27.3359 117.621 27.3867 117.152 27.3867C116.949 27.3867 116.75 27.3477 116.555 27.2695C116.367 27.1914 116.195 27.0859 116.039 26.9531C115.891 26.8203 115.77 26.668 115.676 26.4961C115.59 26.3164 115.547 26.125 115.547 25.9219C115.547 25.5547 115.656 25.2461 115.875 24.9961C116.094 24.7461 116.387 24.6211 116.754 24.6211L118.957 25.418C119.074 25.418 119.195 25.3633 119.32 25.2539C119.445 25.1367 119.566 24.9922 119.684 24.8203C119.809 24.6406 119.926 24.4492 120.035 24.2461C120.145 24.0352 120.242 23.832 120.328 23.6367C120.438 23.3711 120.539 23.0156 120.633 22.5703C120.727 22.1172 120.812 21.6016 120.891 21.0234C120.977 20.4375 121.051 19.8047 121.113 19.125C121.184 18.4375 121.242 17.7266 121.289 16.9922C121.336 16.2578 121.371 15.5117 121.395 14.7539C121.418 13.9961 121.43 13.2539 121.43 12.5273C121.43 12.4336 121.379 12.332 121.277 12.2227C121.184 12.1055 121.059 12.0391 120.902 12.0234C120.723 12.0078 120.539 11.9922 120.352 11.9766C120.195 11.9609 120.023 11.9492 119.836 11.9414C119.648 11.9336 119.477 11.9297 119.32 11.9297V10.8984H131.988V11.9297L130.547 12.0234C130.383 12.0391 130.258 12.1055 130.172 12.2227C130.086 12.332 130.043 12.4336 130.043 12.5273V25.3711C130.043 25.4648 130.086 25.5703 130.172 25.6875C130.258 25.7969 130.383 25.8594 130.547 25.875L131.988 25.9688V27H125.672ZM140.309 13.6055L137.977 19.8984H142.664L140.309 13.6055ZM143.121 27V25.9688L144.504 25.8516C144.582 25.8516 144.648 25.8008 144.703 25.6992C144.758 25.5898 144.773 25.5039 144.75 25.4414L143.098 21.0469H137.555L135.961 25.3711C135.945 25.418 135.945 25.4688 135.961 25.5234C135.977 25.5781 136.004 25.6328 136.043 25.6875C136.082 25.7344 136.125 25.7734 136.172 25.8047C136.219 25.8359 136.262 25.8516 136.301 25.8516L137.719 25.9688V27H132.891V25.9688L134.285 25.6758L139.875 10.5117H141.68L147.246 25.3242C147.301 25.4883 147.352 25.5977 147.398 25.6523C147.453 25.707 147.57 25.75 147.75 25.7812L148.828 25.9688V27H143.121Z" fill="black"/>
</svg>
