<svg width="56" height="69" viewBox="0 0 56 69" fill="none" xmlns="http://www.w3.org/2000/svg">
<path d="M0 15.019L8.36524 29.9547V39.0649L0.00978593 53.9712L0 15.019Z" fill="#5B57A2"/>
<path d="M32.1191 24.5198L39.9577 19.7209L55.9997 19.7059L32.1191 34.319V24.5198Z" fill="#D90751"/>
<path d="M32.0749 14.931L32.1192 34.7052L23.7344 29.559V0L32.0749 14.931Z" fill="#FAB718"/>
<path d="M55.9997 19.7058L39.9571 19.7208L32.0749 14.931L23.7344 0L55.9997 19.7058Z" fill="#ED6F26"/>
<path d="M32.1192 54.0541V44.4602L23.7344 39.4117L23.739 69.0001L32.1192 54.0541Z" fill="#63B22F"/>
<path d="M39.9381 49.2988L8.36467 29.9547L0 15.019L55.9657 49.2792L39.9381 49.2988Z" fill="#1487C9"/>
<path d="M23.7402 69.0001L32.1193 54.0541L39.9382 49.2988L55.9659 49.2793L23.7402 69.0001Z" fill="#017F36"/>
<path d="M0.00976562 53.9711L23.8028 39.4121L15.8037 34.5096L8.36522 39.0648L0.00976562 53.9711Z" fill="#984995"/>
</svg>
